PathFileType	4	(X/Y/Z)	Patient4_TMGait_0pt3_01_left_18.trc.trc
DataRate	CameraRate	NumFrames	NumMarkers	Units	OrigDataRate	OrigDataStartFrame	OrigNumFrames
50.179211469534	50.179211469534	6	33	mm	50.179211469534	71	       141
Frame#	Time	Sacral			L.Shoulder			Chest			R.Shoulder			Neck			R.ASIS			L.ASIS			R.Thigh.Superior			R.Thigh.Lateral			R.Thigh.Inferior			R.Patella			L.Thigh.Superior			L.Thigh.Lateral			L.Thigh.Inferior			L.Patella			L.Shank.Superior			L.Shank.Lateral			L.Shank.Inferior			R.Shank.Superior			R.Shank.Lateral			R.Shank.Inferior			R.Heel			R.Midfoot.Superior			R.Midfoot.Lateral			R.Toe			L.Heel			L.Midfoot.Lateral			L.Midfoot.Superior			L.Toe			L.Elbow			L.Wrist			R.Elbow			R.Wrist			
		X1	Y1	Z1	X2	Y2	Z2	X3	Y3	Z3	X4	Y4	Z4	X5	Y5	Z5	X6	Y6	Z6	X7	Y7	Z7	X8	Y8	Z8	X9	Y9	Z9	X10	Y10	Z10	X11	Y11	Z11	X12	Y12	Z12	X13	Y13	Z13	X14	Y14	Z14	X15	Y15	Z15	X16	Y16	Z16	X17	Y17	Z17	X18	Y18	Z18	X19	Y19	Z19	X20	Y20	Z20	X21	Y21	Z21	X22	Y22	Z22	X23	Y23	Z23	X24	Y24	Z24	X25	Y25	Z25	X26	Y26	Z26	X27	Y27	Z27	X28	Y28	Z28	X29	Y29	Z29	X30	Y30	Z30	X31	Y31	Z31	X32	Y32	Z32	X33	Y33	Z33	

71	34.855000000000	730.886175893311	1004.370305164150	428.663310409895	968.137435047791	1442.049508069331	314.930559496446	1019.363354688123	1358.556360061706	492.524816101450	891.327921693422	1426.141420241456	640.002254597719	910.571404697500	1492.965319032273	468.581268838314	934.774504380107	944.907684577869	590.155210643957	971.548665233852	959.909071074720	317.760536373169	1012.541137013999	767.502644782946	566.798431521623	960.845423433909	648.772404084291	634.405269387311	1051.781819113962	607.390480795250	560.033418522243	1080.458600320315	520.141158245357	583.495433352189	985.300028516445	732.444629343230	354.658128194054	887.601521287042	623.830496134193	287.887657295366	949.762629870987	540.354086195518	364.006690966234	939.008502111080	471.744647990701	374.678015476780	903.217683846508	403.086471960346	365.873548184764	803.188206080586	297.704936143341	315.702695821925	834.773734749132	185.099981129125	394.000571982727	1050.930999449558	431.464734564313	594.540561297019	977.293315667664	328.265135689775	655.758460078789	1037.192341848731	232.124432714761	611.321356398497	921.898178754901	55.831215256275	579.533150464121	1088.013543039461	117.233381285093	631.409531661891	1001.426515383518	46.484435248600	657.278965218392	1206.831040360907	70.809739371178	663.653497954823	691.803960721906	37.989204942540	438.869068597202	763.584878527007	35.497778778409	356.457897719643	848.938391072785	94.924785615719	382.040421861769	975.702336116383	41.190468336148	348.814552775165	1094.744246269169	1151.104779080579	145.000074038549	1339.584179141248	1073.523232327600	193.194615649960	713.471267512151	1114.732253881096	693.006012852143	671.219043584041	857.052375056602	693.686596105010	
72	34.874928571429	731.685136227459	1003.771104077353	429.940591718625	970.375562074902	1441.334624846102	319.419828661823	1019.155335981116	1357.793948124354	497.622494562480	889.486160401070	1425.893256831915	643.486727902018	910.802097570236	1492.278538729129	472.268202682500	933.567070127434	943.674300634044	593.882298614009	973.279504880417	959.304756642329	321.723708192151	1009.769336139089	765.216838947868	572.003001185252	955.480770143688	646.492266130198	638.006036910920	1047.468135921096	605.163937127984	565.071363014199	1075.490719580387	520.009590214412	587.316212975959	983.307905414809	731.048783914940	357.581495430933	884.073945077377	624.227467171771	288.871680886482	943.848195796102	539.552010684098	365.001602447007	931.791826540140	471.465130961227	375.303324086338	896.644774044802	403.184601600120	366.225589684101	796.825311862284	297.708780977524	315.648666421281	828.476600539582	185.120483622622	394.081694634550	1049.976951067069	430.852419222278	598.060713445364	980.757675760971	324.126427666289	659.149852243568	1045.120383917982	230.517457841002	614.554880239505	936.939335674001	50.302330660156	582.637960827572	1101.431954925544	116.247582211000	633.839535344626	1017.231404185123	42.693572401800	659.854229210629	1222.169787109095	73.351468827989	665.211051070601	685.720835896488	37.807105042709	438.858459814632	757.486685591026	35.373451132756	356.418596528762	842.798586392573	94.869880227600	382.063615337292	969.608716035935	41.241171082040	348.917051915409	1102.438646108575	1154.327652417718	148.999231957276	1350.036206058011	1088.279078142213	199.033328226192	705.974887844400	1118.265545671256	692.982477968645	659.667619411466	861.169572213617	693.386361674077	
73	34.894857142857	732.877411810010	1002.680992418606	431.657381572861	972.285034290828	1440.282008371706	324.123776153081	1018.989889319280	1356.805999753953	502.843514624585	887.872123552113	1425.235012040545	647.301660523942	910.949792528775	1491.239446179265	476.264724542801	932.986186258528	942.017644768337	597.765243455203	975.373593753678	958.431532984463	325.853563573947	1007.857696864864	762.569009686889	577.283038247460	950.824796560843	643.739505723287	641.329459568953	1044.038005659353	602.627018617431	569.963303783898	1071.037791907539	519.050829558983	590.851730010196	982.020421691707	729.481715919844	360.530636947871	881.241948251549	624.387223422155	290.112518771910	938.801802615719	538.585598254480	366.163139014890	925.529542373852	470.941677029979	376.116041242874	890.804601685169	403.036596145888	366.783417868170	790.940266667449	297.716068375315	315.746588970739	822.402867087609	185.013716658722	394.202668370633	1048.761087568363	429.515412577882	601.258562184703	982.852272004917	320.237613083432	661.908381931822	1050.586299983132	228.738877924294	617.223589217372	947.728517399238	46.388225517645	584.883675207767	1110.960638884322	114.979634535348	635.670764450371	1028.363466837165	39.936614900892	661.858840464070	1232.820492656642	74.372160983750	666.634358654622	679.636997967971	37.626016601697	438.830902882957	751.403465722883	35.245165498060	356.376077067476	836.669817514583	94.809311688785	382.091412363878	963.531319085665	41.244535880203	349.001933168576	1109.532891868328	1156.939409978969	153.485254940795	1359.359771633119	1102.040470858248	204.974324875149	700.516204555197	1120.473906805273	693.714254609593	651.627510178982	863.715074657299	694.098513030155	
74	34.914785714286	734.452676044992	1001.260042364359	433.822905862981	973.911454796155	1439.033854412325	329.031296306550	1018.913016433402	1355.722424015668	508.188526362281	886.497628350743	1424.277785666532	651.438989021876	911.036017275343	1489.970580812244	480.570196939515	933.052043086308	940.114258126704	601.805318678365	977.824440811741	957.402676117244	330.159496157832	1006.906788738479	759.778637453476	582.501858345057	947.110377339529	640.746869218614	644.337512109359	1041.641222541664	599.996223472459	574.585136485385	1067.340143055211	517.442084797903	594.031822921218	981.431542909273	727.793980443902	363.527462271941	879.089185869258	624.356885433599	291.681517320692	934.638422914370	537.493401085306	367.563493412705	920.252258240042	470.196880670341	377.190900015218	885.699156106403	402.682298446549	367.603200943375	785.530271604920	297.782243089321	316.042741908988	816.552941987210	184.814097318075	394.376463831088	1047.481678715794	427.585285973837	604.064995970440	983.753013615023	316.641098023368	664.047928241439	1053.733921577725	226.738910214119	619.260171802478	954.269797550430	43.831523725064	586.284854369257	1116.711108924429	113.347893568157	636.844624202169	1034.895795811145	38.035688236784	663.295990821419	1239.006616179283	73.825316867986	667.858663400424	673.551870798563	37.473799306509	438.770153083751	745.341069371877	35.123892319604	356.325944541077	830.563234314297	94.755410374009	382.112980815336	957.477440976226	41.195471962781	349.063251651355	1115.969149274205	1159.011314605892	158.403219901765	1367.543458245607	1114.720325644631	210.972056781118	696.994308102553	1121.405625990915	695.253472813596	646.971698711806	864.714831599737	695.886415180845	
75	34.934714285714	736.376127944918	999.685103225494	436.447823814588	975.330004311707	1437.735390416747	334.122423585513	1018.976156727338	1354.668423316699	513.651953884826	885.386171416296	1423.158584799156	655.874229072396	911.103448844033	1488.608179649236	485.165174584287	933.743070943947	938.160898589881	606.016060127562	980.588843516831	956.331643949797	334.656405185326	1006.942346434787	757.069904211638	587.535638735124	944.522195620156	637.768776230828	647.053690867872	1040.346858418568	597.482590168785	578.836688820775	1064.574782225204	515.399792919638	596.823598855656	981.493522561169	726.053671538197	366.615822130726	877.582262100092	624.193339077749	293.642243511396	931.354433694186	536.324801892531	369.270998440093	915.969516207690	469.263077839211	378.590752318559	881.319431374356	402.171413653935	368.729513705983	780.587531615036	297.967679976300	316.578580869251	810.929708907062	184.566831770263	394.613710837989	1046.330408066394	425.248765509603	606.451224725007	983.736683041349	313.397391706101	665.653761225791	1054.861967147939	224.540046946177	620.654992594691	956.885358749091	42.354161807078	586.936563449835	1119.046517461114	111.372818282560	637.365616424577	1037.243555911611	36.821591233704	664.212128320551	1241.232539753604	71.868720640461	668.815562647219	667.467555806950	37.395102742728	438.660450853033	739.307249480326	35.028486232024	356.263581090568	824.496417987228	94.722732878614	382.115856517140	951.455797829213	41.090825463108	349.095878387037	1121.723594774709	1160.634504153737	163.674467652364	1374.615887207572	1126.262960554857	216.981347559761	695.284190169501	1121.189877270708	697.617457364702	645.513480615447	864.306926297644	698.789664157131	
76	34.954642857143	738.588740210382	998.130250918304	439.543325844259	976.630676573750	1436.519688580477	339.365912862075	1019.227916506061	1353.752732119370	519.217769454222	884.569407010772	1422.026033257428	660.567152211092	911.209014831168	1487.288926287415	490.010014697414	934.999853155766	936.351370760385	610.419742335491	983.587755558055	955.321910933121	339.357871428044	1007.914304516444	754.649991025896	592.290057310639	943.175543939560	635.050089407088	649.559431690435	1040.136574242873	595.268723438827	582.654416942714	1062.834671683979	513.154237271647	599.236298003003	982.122734628372	724.343399512961	369.853096929555	876.678173586767	623.957644433699	296.041387124142	928.937787634322	535.136121428070	371.338203072582	912.680160981227	468.179239302669	380.354528452344	877.654811247664	401.558341701063	370.187196636102	776.105111735680	298.333841962662	317.385609735148	805.542764176823	184.325038856498	394.919879292418	1045.463077820451	422.721823609594	608.435070953034	983.127169799917	310.576522418870	666.869231961662	1054.367808353891	222.227509108711	621.460366327228	956.148146665493	41.682138164530	586.998241135089	1118.514851758410	109.166260165911	637.310216585905	1036.083977418786	36.140047214285	664.690810920390	1240.201775652859	68.830433300662	669.454595523044	661.390656310315	37.454019384831	438.489193379523	733.311670487792	34.987788372682	356.184864527865	818.494470368530	94.727092807206	382.086444801265	945.475872761340	40.929731689965	349.095831793340	1126.805282994853	1161.907928544469	169.205027172336	1380.641359430038	1136.635512047246	222.958833298261	695.239461721891	1120.018534963923	700.787525075521	647.006369581347	862.719582234913	702.818728680664	
